<svg xmlns="http://www.w3.org/2000/svg" viewBox="0 0 322.48 192"><defs><style>.cls-1{fill:#cfc1b0;}.cls-2{fill:#ece6df;}</style></defs><g id="Capa_2" data-name="Capa 2"><g id="Capa_1-2" data-name="Capa 1"><path class="cls-1" d="M161.24,6.23h-2.93A308.45,308.45,0,0,0,95,13c-1.47-5.24-3.91-8-5.85-9.51C79.51-4,59.69.66,40.84,16.68,32.46,34,26.46,48.65,22.49,59,7.87,97,1.83,125.61.32,152.51c-1.65,29.55,3.46,34,5.42,35.32,11.86,8.16,44,4.4,58.83-11.8C75.39,164.19,76.66,160,85.9,139.15c2.95-6.64,5.19-12.26,6.7-16.21l6.9-3a152.94,152.94,0,0,0,61.74,11.14A152.9,152.9,0,0,0,223,120l6.9,3c1.52,4,3.75,9.57,6.7,16.21,9.24,20.8,10.51,25,21.34,36.88,14.82,16.2,47,20,58.82,11.8,2-1.35,7.07-5.77,5.42-35.32C320.65,125.61,314.61,97,300,59c-4-10.33-10-25-18.35-42.3C262.79.66,243-4,233.36,3.51,231.42,5,229,7.78,227.51,13a308.45,308.45,0,0,0-63.34-6.79Z"/><circle class="cls-2" cx="113.94" cy="82.33" r="15.71"/><circle class="cls-2" cx="213.23" cy="82.33" r="15.71"/></g></g></svg>