<svg xmlns="http://www.w3.org/2000/svg" viewBox="0 0 1366 78.84"><defs><style>.cls-1{fill:#dcd2b0;}.cls-2{fill:#e6d6b8;}.cls-3{fill:#cfc1b0;}</style></defs><g id="Capa_2" data-name="Capa 2"><g id="Capa_1-2" data-name="Capa 1"><path class="cls-1" d="M773.3,27.34C742.51,39.08,694,54.91,630,64.53c-133.46,20.06-160.8-12.94-324,0-88.05,7-146.68,21.9-243.85,9.62C35.31,70.76,13.91,66.37,0,63.19V18.49H666Z"/><path class="cls-2" d="M592.7,24.79C623.49,33.15,672,44.42,736,51.27c133.46,14.28,160.8-9.22,324,0,88,5,146.68,15.59,243.85,6.85,26.82-2.41,48.22-5.54,62.13-7.81V18.49H700Z"/><path class="cls-3" d="M1366,33.42c-28.54.57-67.19,1.12-113,1.07-24.32,0-89.54-.28-187.8-3.46-73.78-2.39-113-4.72-144.81-6.05C724.69,16.79,693.68,41.38,506,36.28c-137.17-3.73-213-19.37-292-9.6-52.22,6.47-72.48,7.31-113,9-14.64.61-38.5,1.33-68,0-13.7-.63-25-1.53-33-2.27V0H1366Z"/></g></g></svg>