<svg xmlns="http://www.w3.org/2000/svg" viewBox="0 0 358.95 209.62"><defs><style>.cls-1,.cls-3{fill:#cfc1b0;}.cls-1,.cls-2{stroke:#cfc1b0;stroke-miterlimit:10;stroke-width:17.62px;}.cls-2{fill:none;}</style></defs><g id="Capa_2" data-name="Capa 2"><g id="Capa_1-2" data-name="Capa 1"><path class="cls-1" d="M350.14,145.12v34.29a21.46,21.46,0,0,1-21.4,21.4H30.21a21.47,21.47,0,0,1-21.4-21.4V145.12Z"/><path class="cls-2" d="M350.14,30.21V145.12H8.81V30.21a21.48,21.48,0,0,1,21.4-21.4H328.74A21.46,21.46,0,0,1,350.14,30.21Z"/><path class="cls-3" d="M167.92,52.93a9.25,9.25,0,0,0-14.37,7.71v44.29a9.25,9.25,0,0,0,14.37,7.71L201.28,90.5a9.27,9.27,0,0,0,0-15.43Z"/></g></g></svg>