<svg xmlns="http://www.w3.org/2000/svg" viewBox="0 0 622.01 405.99"><defs><style>.cls-1{fill:none;}</style></defs><g id="Capa_2" data-name="Capa 2"><g id="Capa_1-2" data-name="Capa 1"><path class="cls-1" d="M126,46.06H35A35,35,0,0,0,0,81v91a35,35,0,0,0,35,35H96.32l.58-2.21a55.67,55.67,0,0,1,53.86-41.55H161V81A35,35,0,0,0,126,46.06ZM72.56,155.92a6.64,6.64,0,1,1,6.64-6.63A6.63,6.63,0,0,1,72.56,155.92Zm30.62,0a6.64,6.64,0,1,1,6.64-6.63A6.63,6.63,0,0,1,103.18,155.92Zm14.25-37-3,12.76a10.28,10.28,0,0,1-10,8H71.34a10.35,10.35,0,0,1-10-7.62L57,114.3h0L54.14,103a4.4,4.4,0,0,0-4.29-3.35h-4a2.5,2.5,0,0,1,0-5h4A9.4,9.4,0,0,1,59,101.8l2.35,9.4,50.2.24a6.09,6.09,0,0,1,5.89,7.47Z"/><path class="cls-1" d="M533.47,309.05a42.86,42.86,0,0,0,10.78,2.72A48,48,0,0,0,533.47,309.05Z"/><path class="cls-1" d="M533.47,309.05a42.86,42.86,0,0,0,10.78,2.72A48,48,0,0,0,533.47,309.05Z"/><path class="cls-1" d="M544.25,311.77a42.86,42.86,0,0,1-10.78-2.72A48,48,0,0,1,544.25,311.77Z"/><path class="cls-1" d="M257.55,357.3a48.7,48.7,0,1,1-48.7-48.69A48.47,48.47,0,0,1,257.55,357.3Z"/><path class="cls-1" d="M575.65,357.3a48.72,48.72,0,1,1-42.19-48.25h0a42.86,42.86,0,0,0,10.78,2.72h0A48.72,48.72,0,0,1,575.65,357.3Z"/><path class="cls-1" d="M544.25,311.77a42.86,42.86,0,0,1-10.78-2.72A48,48,0,0,1,544.25,311.77Z"/><path class="cls-1" d="M544.25,311.77a42.86,42.86,0,0,1-10.78-2.72A48,48,0,0,1,544.25,311.77Z"/><path class="cls-1" d="M541.41,137a89.86,89.86,0,0,0,14.3,11.57c-2.39-20-7.32-40.2-17-58.41-7.34.45-14.61,1.41-21.35,4C521.81,110.23,529.53,125.11,541.41,137Z"/><path class="cls-1" d="M326.73,233.48a15.37,15.37,0,0,1,1.9-2.5,16.72,16.72,0,0,0,3.95-16.93A154.37,154.37,0,0,0,326,198.17c-.05-.09-.08-.17-.13-.26A45,45,0,0,0,285.32,172H150.76a46.89,46.89,0,0,0-46.91,46.92,5.91,5.91,0,0,0,1.53,4,5.82,5.82,0,0,0,3.79,1.89,104,104,0,0,1,19.24,3.37c9.3,2.62,19.33,7.32,24.11,16.24,5.38,10,3,23.73-3.71,32.61-7.47,9.95-20.06,14-32,15.45l-.13,0A14.57,14.57,0,0,0,103.85,307v12.93a37.44,37.44,0,0,0,21.78,34,9.51,9.51,0,0,0,13.42-7.1A70.59,70.59,0,0,1,279,349a9.44,9.44,0,0,0,9.42,8.27H447.43a9.44,9.44,0,0,0,9.42-8.27A70.54,70.54,0,0,1,527,286.72c.88,0,1.77,0,2.65,0a70,70,0,0,1,30.66,8.32,70.87,70.87,0,0,1,36.22,50,9.46,9.46,0,0,0,14.31,6.38c2.49-1.58,5.3-2.75,7.66-6.43,5.46-8.54,3.21-18.72,2.37-22.44a46.29,46.29,0,0,0-9-18.36c-14.65-18.86-37-34.16-46.3-40.17-15.31-4.35-4.67-52.44-8.72-104.64a100.52,100.52,0,0,1-21.57-16.27c-13.8-13.8-22.65-31.5-27.29-50.34a4.42,4.42,0,0,1,2-4.94c7.61-3.64,15.71-5.18,23.95-6a29.52,29.52,0,0,0-6.69-9.41c-13-12.09-32.6-7.38-35-6.78a67.55,67.55,0,0,1-8.24-13c-10.29-21.53-2.66-36.11-12.51-45.95-7.3-7.28-20.7-8.5-23.62-4.5-3.63,5,9.57,17.28,28.53,51.18,3.6,6.43,6.36,11.77,8.1,15.2-6.37,4.23-14.43,11.17-17.66,21.82-1.8,6-.3,7.14-2.25,10.68-6.92,12.55-29.49,4.61-37.29,16.55-3.77,5.79-3.34,15.12.95,18.79,7.56,6.44,21.41-9.51,37.36-6.47,25,4.78,35,52.38,36.95,61.58,6,28.37,1.59,53.33-3.54,70.4l-.6.18c-26.57,7.78-54.92,26.28-81.19,64.87l-.19.11-51.3,1.93h-.07c-4.63-1.3-11.49-4-16.5-10.27C332.25,296,324.48,267.72,326.73,233.48Z"/></g></g></svg>