<svg xmlns="http://www.w3.org/2000/svg" viewBox="0 0 64 67.67"><defs><style>.cls-1{fill:#cfc1b0;}</style></defs><g id="Capa_2" data-name="Capa 2"><g id="Capa_1-2" data-name="Capa 1"><path class="cls-1" d="M17,37.79l1.46,11a2,2,0,0,1-2,2.31h-2.1a2,2,0,0,1-2-1.77l-.78-5.93H7l-.8,5.93a2,2,0,0,1-2,1.77H2a2,2,0,0,1-2-2.31L1.47,37.84,5,15.72A2,2,0,0,1,7,14h4.51a2,2,0,0,1,2,1.72Zm-6.28-.33L9.22,26.23,7.73,37.46Z"/><path class="cls-1" d="M39.85,16v4.16a2,2,0,0,1-2,2H35.07a2,2,0,0,0-2,2v25a2,2,0,0,1-2,2H26.57a2,2,0,0,1-2-2v-25a2,2,0,0,0-2-2H19.81a2,2,0,0,1-2-2V16a2,2,0,0,1,2-2H37.86A2,2,0,0,1,39.85,16Z"/><path class="cls-1" d="M63.46,46.84l.38,1a2.4,2.4,0,0,1-2.25,3.26H57.75a2.41,2.41,0,0,1-2.29-1.66L54.13,45.3a2.4,2.4,0,0,0-4.69.73v2.66a2.4,2.4,0,0,1-2.4,2.4h-3.7a2.4,2.4,0,0,1-2.4-2.4V2.4A2.41,2.41,0,0,1,43.34,0H47a2.41,2.41,0,0,1,2.4,2.4V15.75a.72.72,0,0,0,1.4.22L55.46,1.66A2.41,2.41,0,0,1,57.75,0h3.84a2.4,2.4,0,0,1,2.25,3.26l-.38,1A59.74,59.74,0,0,0,63.46,46.84Z"/><circle class="cls-1" cx="16.26" cy="60.63" r="7.04"/><circle class="cls-1" cx="47.98" cy="60.63" r="7.04"/></g></g></svg>